<svg width="119" height="27" viewBox="0 0 119 27" fill="none" xmlns="http://www.w3.org/2000/svg">
<path d="M40.445 6.01206C39.5239 5.56059 38.3445 5.33107 36.9396 5.33107H30.9078C30.6287 5.33107 30.4025 5.54683 30.4025 5.81448C30.4023 10.7062 30.4024 19.5012 30.4024 21.6491C30.4024 21.9168 30.6286 22.1321 30.9077 22.1321H33.2658C33.5449 22.1321 33.7711 21.9151 33.7711 21.6474V15.6595H36.9452C38.3838 15.6595 39.5797 15.4217 40.5022 14.9537C41.4247 14.4712 42.1147 13.8295 42.5512 13.0527C42.9881 12.2504 43.212 11.2859 43.2032 10.38C43.2032 9.39506 42.9735 8.68367 42.5205 7.89239C42.0675 7.10111 41.3704 6.46491 40.445 6.01206ZM39.1131 12.3724C38.64 12.8287 37.8413 13.0616 36.7391 13.0616H33.7654L33.7654 7.93099H36.7392C37.8406 7.93099 38.6393 8.17016 39.1138 8.643C39.6033 9.0993 39.8517 9.55635 39.8517 10.3773C39.8517 11.1823 39.6033 11.8982 39.1131 12.3724Z" fill="#333333"/>
<path d="M52.9897 10.6306C52.0502 10.1154 50.9529 9.85441 49.7288 9.85441C48.4209 9.85441 47.2649 10.1292 46.2888 10.6787C45.3272 11.2146 44.5391 11.9951 44.0119 12.9338C43.4758 13.8955 43.2035 15.0145 43.2035 16.2509C43.2035 20.617 47.0291 22.4551 49.7016 22.4551C52.607 22.4551 54.2741 21.2599 54.8886 20.7085C55.0585 20.556 55.0626 20.3114 54.9207 20.1344L53.7672 18.6962C53.6046 18.4935 53.3102 18.4528 53.0909 18.5982C52.5105 18.9828 51.4947 19.5632 50.1237 19.5632C47.419 19.5632 46.6012 17.9147 46.5045 17.0952L46.4866 16.942H55.8782C55.8782 16.942 56.0041 16.5183 56.0041 15.7447C56.0174 14.699 55.7377 13.669 55.1943 12.7621C54.6805 11.8689 53.9171 11.1308 52.9897 10.6306ZM46.5396 14.9321L46.5819 14.7624C46.7661 14.0226 47.1323 13.4573 47.6705 13.0863C48.2643 12.6604 48.9888 12.4355 49.7303 12.4468C50.5351 12.4468 51.2174 12.6776 51.7585 13.1337C52.2516 13.5459 52.5468 14.1023 52.6278 14.7823L52.6472 14.9362L46.5396 14.9321Z" fill="#333333"/>
<path d="M73.0666 11.1419C72.0416 10.2872 70.6259 9.85441 68.8519 9.85441C67.1004 9.85441 65.3114 10.4264 63.8652 11.3501C63.5923 11.5243 63.5137 11.8694 63.665 12.1483L64.2952 13.3108C64.4812 13.654 64.9416 13.7701 65.299 13.591C66.061 13.2089 67.3992 12.6635 68.829 12.6635C69.5329 12.6635 70.1302 12.8545 70.6037 13.231C71.0773 13.6075 71.3141 13.9848 71.3141 14.7859V15.0305H68.2002C66.394 15.0305 65.0184 15.3815 64.1121 16.0747C63.2057 16.768 62.7422 17.6872 62.7422 18.8036C62.7205 21.2475 64.4808 22.4551 66.7473 22.4551C70.2632 22.4551 71.3141 19.9633 71.3141 19.9633V21.49C71.3141 21.8453 71.6124 22.1338 71.9828 22.1354C72.5376 22.1378 73.3335 22.1401 73.9557 22.1378C74.323 22.1364 74.6168 21.8498 74.6168 21.4976V14.7831C74.611 13.2215 74.0917 11.9959 73.0666 11.1419ZM71.1989 17.207C71.0689 17.9095 70.7481 18.5667 70.269 19.1121L70.2632 19.119C69.7739 19.6789 69.0708 19.9633 68.1737 19.9633C67.585 19.9633 67.105 19.8362 66.7474 19.5868C66.3897 19.3374 66.2151 18.9877 66.2151 18.5391C66.2133 18.3367 66.2605 18.1367 66.353 17.9549C66.4455 17.7731 66.5808 17.6144 66.7481 17.4914C67.1057 17.1953 67.7109 17.0455 68.5479 17.0455H71.2282L71.1989 17.207Z" fill="#333333"/>
<path d="M118.14 12.8838C117.6 11.951 116.801 11.1792 115.83 10.654C114.87 10.1237 113.778 9.85441 112.584 9.85441C111.372 9.85441 110.263 10.1237 109.286 10.6547C108.323 11.1889 107.526 11.9585 106.977 12.8845C106.402 13.8173 106.114 14.9178 106.114 16.1549C106.114 17.3921 106.395 18.4974 106.949 19.4453L106.954 19.4522V19.457C107.508 20.3693 108.303 21.1271 109.258 21.6552C110.235 22.1862 111.344 22.4548 112.556 22.4548C113.701 22.4668 114.829 22.191 115.827 21.6552C116.793 21.1345 117.592 20.3713 118.137 19.4481C118.712 18.4994 119 17.3914 119 16.1508C119 14.9102 118.713 13.8207 118.14 12.8838ZM114.717 18.8202C114.107 19.4014 113.382 19.6967 112.56 19.6967C111.738 19.6967 111.012 19.4021 110.403 18.8182C109.811 18.2198 109.511 17.3234 109.511 16.1549C109.511 14.9865 109.811 14.0976 110.404 13.5151C111.014 12.9167 111.748 12.6138 112.588 12.6138C113.394 12.6138 114.112 12.9167 114.721 13.5151C115.328 14.0976 115.637 14.9851 115.637 16.1529C115.637 17.3207 115.327 18.2171 114.717 18.8202Z" fill="#333333"/>
<path d="M61.0576 5.16651C61.0576 4.89885 60.8314 4.68488 60.5523 4.68488L58.1943 4.68488C57.9152 4.68488 57.689 4.90186 57.689 5.16952L57.6889 21.6474C57.6889 21.9151 57.9152 22.1321 58.1942 22.1321H60.5523C60.8314 22.1321 61.0576 21.917 61.0576 21.6493C61.0576 16.4392 61.0576 7.35015 61.0576 5.16651Z" fill="#333333"/>
<path d="M101.583 4.76603C101.304 4.76573 101.077 4.98271 101.077 5.25036C101.077 7.38957 101.077 9.52878 101.077 11.668L100.827 11.3934C100.437 10.9706 99.9651 10.6246 99.4373 10.3748C98.7315 10.0365 97.8967 9.86486 96.9574 9.86486C95.783 9.86486 94.7196 10.1394 93.7946 10.6885C92.8645 11.2271 92.1044 11.9973 91.5955 12.9172C91.0588 13.8493 90.7865 14.9317 90.7865 16.1356C90.7865 19.462 93.1226 22.4552 96.766 22.4552C100.06 22.4552 101.128 19.9512 101.128 19.9512V21.6475C101.128 21.9151 101.354 22.1321 101.633 22.1321H103.925C104.204 22.1321 104.43 21.9151 104.43 21.6475C104.43 16.1826 104.43 10.7177 104.43 5.25278C104.43 4.98418 104.202 4.76686 103.922 4.76748C103.142 4.7692 102.362 4.76688 101.583 4.76603ZM100.06 18.8139C99.481 19.2353 98.6398 19.6726 97.6381 19.6726C96.6364 19.6726 95.7937 19.3376 95.1366 18.6766C94.4796 18.0156 94.1449 17.1597 94.1449 16.137C94.1449 15.1143 94.4789 14.2646 95.1359 13.6194C95.793 12.9742 96.6349 12.644 97.6381 12.644C98.6577 12.644 99.5011 12.979 100.14 13.6406C100.681 14.1712 101.004 14.8391 101.1 15.627H101.111L101.118 15.7574C101.123 15.848 101.125 16.1377 101.128 16.5241C101.13 16.9566 101.036 17.3846 100.852 17.7795C100.668 18.1744 100.398 18.5271 100.06 18.8139Z" fill="#333333"/>
<path d="M84.3018 9.53131C80.8537 9.53131 79.8382 13.4489 79.8382 13.4489V10.5022C79.8382 10.2345 79.612 10.0175 79.3329 10.0175H77.1432C76.8642 10.0175 76.6379 10.2345 76.6379 10.5022V21.6474C76.6379 21.9151 76.8642 22.1321 77.1432 22.1321H79.375C79.6541 22.1321 79.8803 21.9151 79.8803 21.6474V19.2646C79.8803 14.7412 81.2759 12.5987 84.0278 12.5987C85.9068 12.5987 85.8407 14.299 85.8407 15.9279C85.8407 16.5886 85.8407 20.3063 85.8407 21.6486C85.8407 21.9163 86.067 22.1321 86.346 22.1321H88.5969C88.8759 22.1321 89.1022 21.9157 89.1022 21.648C89.1022 20.3115 89.1022 16.5639 89.1022 14.9758C89.1022 11.9585 87.6204 9.53131 84.3018 9.53131Z" fill="#333333"/>
<path d="M18.1178 7.78387C15.7782 6.31782 13.7578 5.0529 13.7578 1.02309C13.7578 0.683032 13.5818 0.364783 13.287 0.174964C12.9931 -0.0156628 12.6192 -0.0528188 12.2908 0.0748041C9.12459 1.30274 7.24309 3.18498 6.16573 4.94092C5.78351 5.56389 6.35206 6.28977 7.10081 6.37196C7.5259 6.41862 7.86778 6.19202 8.0807 5.85822C8.93635 4.51495 10.1584 3.42127 11.7248 2.59334C12.2621 6.56095 14.8367 8.1732 16.9514 9.4979C18.9709 10.7628 20.5668 11.762 20.5466 14.5059C20.5466 16.4348 19.4274 18.6738 17.3952 20.8119C15.6561 22.6431 13.4033 24.1794 11.4359 24.891C9.09131 24.0719 6.81828 22.6657 5.15497 20.9961C3.77717 19.6132 2.13492 17.3645 2.13492 14.5059C2.13492 11.8048 3.72832 10.6158 4.8779 10.153C4.91664 11.3315 5.03707 12.5455 5.40089 13.5746C6.22117 15.8928 7.95943 16.379 9.27323 16.379C10.9172 16.379 12.6184 15.1343 12.6184 13.0479C12.6133 11.7709 11.9707 10.4825 10.8557 9.51324C10.3302 9.05606 9.55451 8.54638 8.47821 8.21278C7.07514 7.8388 6.09821 7.72006 4.59493 8.06658C3.86139 8.28709 3.02932 8.68854 2.26378 9.33716C1.23126 10.2111 0 11.8185 0 14.5059C0 17.1932 1.24895 20.0389 3.6121 22.4104C5.58701 24.3934 8.31483 26.0461 11.0965 26.9459C11.2069 26.9822 11.3222 27 11.4376 27C11.553 27 11.665 26.9822 11.7737 26.9475C14.1798 26.1818 16.8705 24.4031 18.9734 22.1915C21.3644 19.6754 22.6815 16.9461 22.6815 14.5132C22.7093 10.6594 20.2704 9.13118 18.1178 7.78387ZM10.4843 13.052C10.4843 13.6912 10.155 14.3314 9.27323 14.3314C8.31398 14.3314 7.74051 13.8123 7.42296 12.9163C7.13157 12.094 7.03724 11.0286 7.00861 9.97446C9.38945 10.342 10.4792 11.9042 10.4843 13.052Z" fill="#FF6B00"/>
</svg>
